<mxfile host="app.diagrams.net" modified="2024-03-07T03:25:34.692Z" agent="Mozilla/5.0 (Windows NT 10.0; Win64; x64) AppleWebKit/537.36 (KHTML, like Gecko) Chrome/122.0.0.0 Safari/537.36" etag="twdw_ttwYMOuzwRPrdIv" version="24.0.2" type="github">
  <diagram name="第 1 页" id="hQReIISKm8YCtOWLxGjV">
    <mxGraphModel dx="1434" dy="754" grid="1" gridSize="10" guides="1" tooltips="1" connect="1" arrows="1" fold="1" page="1" pageScale="1" pageWidth="827" pageHeight="1169" math="0" shadow="0">
      <root>
        <mxCell id="0" />
        <mxCell id="1" parent="0" />
        <mxCell id="yliNx0_WTpfWxn0OHZDb-20" value="" style="rounded=0;whiteSpace=wrap;html=1;fillColor=none;dashed=1;strokeColor=#FF00FF;" vertex="1" parent="1">
          <mxGeometry x="10" y="95" width="640" height="490" as="geometry" />
        </mxCell>
        <mxCell id="Ozge6DqlCok_twECxc4k-1" value="&lt;font style=&quot;font-size: 14px;&quot;&gt;Prepare&lt;/font&gt;" style="rounded=0;whiteSpace=wrap;html=1;" parent="1" vertex="1">
          <mxGeometry x="20" y="110" width="140" height="40" as="geometry" />
        </mxCell>
        <mxCell id="Ozge6DqlCok_twECxc4k-2" value="" style="edgeStyle=orthogonalEdgeStyle;rounded=0;orthogonalLoop=1;jettySize=auto;html=1;" parent="1" source="Ozge6DqlCok_twECxc4k-3" target="Ozge6DqlCok_twECxc4k-11" edge="1">
          <mxGeometry relative="1" as="geometry" />
        </mxCell>
        <mxCell id="Ozge6DqlCok_twECxc4k-3" value="&lt;font style=&quot;font-size: 14px;&quot;&gt;Detect&lt;/font&gt;" style="rounded=0;whiteSpace=wrap;html=1;" parent="1" vertex="1">
          <mxGeometry x="20" y="170" width="140" height="40" as="geometry" />
        </mxCell>
        <mxCell id="Ozge6DqlCok_twECxc4k-4" value="" style="edgeStyle=orthogonalEdgeStyle;rounded=0;orthogonalLoop=1;jettySize=auto;html=1;" parent="1" source="Ozge6DqlCok_twECxc4k-5" target="Ozge6DqlCok_twECxc4k-12" edge="1">
          <mxGeometry relative="1" as="geometry" />
        </mxCell>
        <mxCell id="Ozge6DqlCok_twECxc4k-5" value="&lt;font style=&quot;font-size: 14px;&quot;&gt;Respond&lt;/font&gt;" style="rounded=0;whiteSpace=wrap;html=1;" parent="1" vertex="1">
          <mxGeometry x="20" y="230" width="140" height="40" as="geometry" />
        </mxCell>
        <mxCell id="Ozge6DqlCok_twECxc4k-6" value="" style="edgeStyle=orthogonalEdgeStyle;rounded=0;orthogonalLoop=1;jettySize=auto;html=1;fontSize=14;" parent="1" source="Ozge6DqlCok_twECxc4k-7" target="Ozge6DqlCok_twECxc4k-36" edge="1">
          <mxGeometry relative="1" as="geometry" />
        </mxCell>
        <mxCell id="Ozge6DqlCok_twECxc4k-7" value="&lt;font style=&quot;font-size: 14px;&quot;&gt;Recover&lt;/font&gt;" style="rounded=0;whiteSpace=wrap;html=1;" parent="1" vertex="1">
          <mxGeometry x="20" y="290" width="140" height="40" as="geometry" />
        </mxCell>
        <mxCell id="Ozge6DqlCok_twECxc4k-8" value="&lt;font style=&quot;font-size: 14px;&quot;&gt;Post-incident&lt;/font&gt;" style="rounded=0;whiteSpace=wrap;html=1;" parent="1" vertex="1">
          <mxGeometry x="20" y="350" width="140" height="40" as="geometry" />
        </mxCell>
        <mxCell id="Ozge6DqlCok_twECxc4k-9" value="&lt;h1&gt;事故流程 SoC&lt;/h1&gt;" style="text;html=1;strokeColor=none;fillColor=none;spacing=5;spacingTop=-20;whiteSpace=wrap;overflow=hidden;rounded=0;" parent="1" vertex="1">
          <mxGeometry x="10" y="40" width="180" height="50" as="geometry" />
        </mxCell>
        <mxCell id="Ozge6DqlCok_twECxc4k-10" value="" style="edgeStyle=orthogonalEdgeStyle;rounded=0;orthogonalLoop=1;jettySize=auto;html=1;fontSize=14;" parent="1" source="Ozge6DqlCok_twECxc4k-11" target="Ozge6DqlCok_twECxc4k-15" edge="1">
          <mxGeometry relative="1" as="geometry" />
        </mxCell>
        <mxCell id="Ozge6DqlCok_twECxc4k-11" value="&lt;b&gt;發出告警 IRT&lt;/b&gt;" style="rounded=0;whiteSpace=wrap;html=1;" parent="1" vertex="1">
          <mxGeometry x="222" y="170" width="140" height="40" as="geometry" />
        </mxCell>
        <mxCell id="Ozge6DqlCok_twECxc4k-12" value="發出通知 利害相關者" style="rounded=0;whiteSpace=wrap;html=1;" parent="1" vertex="1">
          <mxGeometry x="222" y="230" width="140" height="40" as="geometry" />
        </mxCell>
        <mxCell id="Ozge6DqlCok_twECxc4k-13" value="" style="edgeStyle=orthogonalEdgeStyle;rounded=0;orthogonalLoop=1;jettySize=auto;html=1;fontSize=14;" parent="1" source="Ozge6DqlCok_twECxc4k-15" target="Ozge6DqlCok_twECxc4k-20" edge="1">
          <mxGeometry relative="1" as="geometry" />
        </mxCell>
        <mxCell id="Ozge6DqlCok_twECxc4k-14" value="" style="edgeStyle=orthogonalEdgeStyle;rounded=0;orthogonalLoop=1;jettySize=auto;html=1;fontSize=14;" parent="1" source="Ozge6DqlCok_twECxc4k-15" target="Ozge6DqlCok_twECxc4k-37" edge="1">
          <mxGeometry relative="1" as="geometry" />
        </mxCell>
        <mxCell id="Ozge6DqlCok_twECxc4k-15" value="&lt;b&gt;事故紀錄 &amp;amp; 分類&lt;/b&gt;" style="rounded=0;whiteSpace=wrap;html=1;" parent="1" vertex="1">
          <mxGeometry x="397" y="170" width="140" height="40" as="geometry" />
        </mxCell>
        <mxCell id="Ozge6DqlCok_twECxc4k-16" value="&lt;h1&gt;ITIL 事故管理&lt;/h1&gt;" style="text;html=1;strokeColor=none;fillColor=none;spacing=5;spacingTop=-20;whiteSpace=wrap;overflow=hidden;rounded=0;" parent="1" vertex="1">
          <mxGeometry x="377" y="40" width="180" height="50" as="geometry" />
        </mxCell>
        <mxCell id="Ozge6DqlCok_twECxc4k-17" value="根因不明" style="edgeStyle=orthogonalEdgeStyle;rounded=0;orthogonalLoop=1;jettySize=auto;html=1;fontSize=14;" parent="1" source="Ozge6DqlCok_twECxc4k-20" target="Ozge6DqlCok_twECxc4k-23" edge="1">
          <mxGeometry relative="1" as="geometry" />
        </mxCell>
        <mxCell id="Ozge6DqlCok_twECxc4k-18" style="edgeStyle=orthogonalEdgeStyle;rounded=0;orthogonalLoop=1;jettySize=auto;html=1;entryX=0;entryY=0.5;entryDx=0;entryDy=0;fontSize=14;" parent="1" source="Ozge6DqlCok_twECxc4k-20" target="Ozge6DqlCok_twECxc4k-25" edge="1">
          <mxGeometry relative="1" as="geometry" />
        </mxCell>
        <mxCell id="Ozge6DqlCok_twECxc4k-19" style="edgeStyle=orthogonalEdgeStyle;rounded=0;orthogonalLoop=1;jettySize=auto;html=1;fontSize=14;" parent="1" source="Ozge6DqlCok_twECxc4k-20" target="Ozge6DqlCok_twECxc4k-27" edge="1">
          <mxGeometry relative="1" as="geometry" />
        </mxCell>
        <mxCell id="Ozge6DqlCok_twECxc4k-20" value="Handling of incidents" style="rounded=0;whiteSpace=wrap;html=1;" parent="1" vertex="1">
          <mxGeometry x="397" y="230" width="140" height="40" as="geometry" />
        </mxCell>
        <mxCell id="Ozge6DqlCok_twECxc4k-21" value="&lt;h1&gt;ITIL 問題管理&lt;/h1&gt;" style="text;html=1;strokeColor=none;fillColor=none;spacing=5;spacingTop=-20;whiteSpace=wrap;overflow=hidden;rounded=0;" parent="1" vertex="1">
          <mxGeometry x="667" y="40" width="180" height="50" as="geometry" />
        </mxCell>
        <mxCell id="Ozge6DqlCok_twECxc4k-22" value="" style="edgeStyle=orthogonalEdgeStyle;rounded=0;orthogonalLoop=1;jettySize=auto;html=1;fontSize=14;" parent="1" source="Ozge6DqlCok_twECxc4k-23" target="Ozge6DqlCok_twECxc4k-29" edge="1">
          <mxGeometry relative="1" as="geometry" />
        </mxCell>
        <mxCell id="Ozge6DqlCok_twECxc4k-23" value="識別問題" style="rounded=0;whiteSpace=wrap;html=1;" parent="1" vertex="1">
          <mxGeometry x="667" y="230" width="140" height="40" as="geometry" />
        </mxCell>
        <mxCell id="Ozge6DqlCok_twECxc4k-24" style="edgeStyle=orthogonalEdgeStyle;rounded=0;orthogonalLoop=1;jettySize=auto;html=1;entryX=0;entryY=0.5;entryDx=0;entryDy=0;fontSize=14;" parent="1" source="Ozge6DqlCok_twECxc4k-25" target="Ozge6DqlCok_twECxc4k-26" edge="1">
          <mxGeometry relative="1" as="geometry" />
        </mxCell>
        <mxCell id="Ozge6DqlCok_twECxc4k-25" value="1級處理" style="rounded=0;whiteSpace=wrap;html=1;" parent="1" vertex="1">
          <mxGeometry x="487" y="280" width="70" height="30" as="geometry" />
        </mxCell>
        <mxCell id="Ozge6DqlCok_twECxc4k-26" value="2級處理" style="rounded=0;whiteSpace=wrap;html=1;" parent="1" vertex="1">
          <mxGeometry x="547" y="320" width="73" height="30" as="geometry" />
        </mxCell>
        <mxCell id="Ozge6DqlCok_twECxc4k-27" value="Closure &amp;amp; Evaluaton" style="rounded=0;whiteSpace=wrap;html=1;" parent="1" vertex="1">
          <mxGeometry x="397" y="360" width="140" height="40" as="geometry" />
        </mxCell>
        <mxCell id="Ozge6DqlCok_twECxc4k-28" value="" style="edgeStyle=orthogonalEdgeStyle;rounded=0;orthogonalLoop=1;jettySize=auto;html=1;fontSize=14;" parent="1" source="Ozge6DqlCok_twECxc4k-29" target="Ozge6DqlCok_twECxc4k-31" edge="1">
          <mxGeometry relative="1" as="geometry" />
        </mxCell>
        <mxCell id="Ozge6DqlCok_twECxc4k-29" value="Categorization &amp;amp; Priorization" style="rounded=0;whiteSpace=wrap;html=1;" parent="1" vertex="1">
          <mxGeometry x="667" y="310" width="140" height="40" as="geometry" />
        </mxCell>
        <mxCell id="Ozge6DqlCok_twECxc4k-30" value="" style="edgeStyle=orthogonalEdgeStyle;rounded=0;orthogonalLoop=1;jettySize=auto;html=1;fontSize=14;" parent="1" source="Ozge6DqlCok_twECxc4k-31" target="Ozge6DqlCok_twECxc4k-34" edge="1">
          <mxGeometry relative="1" as="geometry" />
        </mxCell>
        <mxCell id="Ozge6DqlCok_twECxc4k-31" value="Categorization &amp;amp; Priorization" style="rounded=0;whiteSpace=wrap;html=1;" parent="1" vertex="1">
          <mxGeometry x="667" y="380" width="140" height="40" as="geometry" />
        </mxCell>
        <mxCell id="Ozge6DqlCok_twECxc4k-32" value="" style="edgeStyle=orthogonalEdgeStyle;rounded=0;orthogonalLoop=1;jettySize=auto;html=1;fontSize=14;" parent="1" source="Ozge6DqlCok_twECxc4k-34" target="Ozge6DqlCok_twECxc4k-35" edge="1">
          <mxGeometry relative="1" as="geometry" />
        </mxCell>
        <mxCell id="Ozge6DqlCok_twECxc4k-33" style="edgeStyle=orthogonalEdgeStyle;rounded=0;orthogonalLoop=1;jettySize=auto;html=1;entryX=0.5;entryY=1;entryDx=0;entryDy=0;fontSize=14;" parent="1" source="Ozge6DqlCok_twECxc4k-34" target="Ozge6DqlCok_twECxc4k-36" edge="1">
          <mxGeometry relative="1" as="geometry" />
        </mxCell>
        <mxCell id="Ozge6DqlCok_twECxc4k-34" value="Closure &amp;amp; Evaluaton" style="rounded=0;whiteSpace=wrap;html=1;" parent="1" vertex="1">
          <mxGeometry x="667" y="445" width="140" height="40" as="geometry" />
        </mxCell>
        <mxCell id="Ozge6DqlCok_twECxc4k-35" value="Review" style="rounded=0;whiteSpace=wrap;html=1;" parent="1" vertex="1">
          <mxGeometry x="667" y="510" width="140" height="30" as="geometry" />
        </mxCell>
        <mxCell id="Ozge6DqlCok_twECxc4k-36" value="復原 + 根因(新控制)" style="rounded=0;whiteSpace=wrap;html=1;" parent="1" vertex="1">
          <mxGeometry x="222" y="290" width="140" height="40" as="geometry" />
        </mxCell>
        <mxCell id="Ozge6DqlCok_twECxc4k-37" value="Escalation" style="rhombus;whiteSpace=wrap;html=1;rounded=0;" parent="1" vertex="1">
          <mxGeometry x="570" y="155" width="70" height="70" as="geometry" />
        </mxCell>
        <mxCell id="yliNx0_WTpfWxn0OHZDb-15" style="edgeStyle=orthogonalEdgeStyle;rounded=0;orthogonalLoop=1;jettySize=auto;html=1;entryX=0;entryY=0.5;entryDx=0;entryDy=0;" edge="1" parent="1" source="yliNx0_WTpfWxn0OHZDb-2" target="yliNx0_WTpfWxn0OHZDb-12">
          <mxGeometry relative="1" as="geometry" />
        </mxCell>
        <mxCell id="yliNx0_WTpfWxn0OHZDb-2" value="&lt;font style=&quot;font-size: 14px;&quot;&gt;1st Party&lt;/font&gt;" style="rounded=1;whiteSpace=wrap;html=1;" vertex="1" parent="1">
          <mxGeometry x="70" y="830" width="110" height="40" as="geometry" />
        </mxCell>
        <mxCell id="yliNx0_WTpfWxn0OHZDb-17" value="" style="edgeStyle=orthogonalEdgeStyle;rounded=0;orthogonalLoop=1;jettySize=auto;html=1;" edge="1" parent="1" source="yliNx0_WTpfWxn0OHZDb-4" target="yliNx0_WTpfWxn0OHZDb-16">
          <mxGeometry relative="1" as="geometry" />
        </mxCell>
        <mxCell id="yliNx0_WTpfWxn0OHZDb-4" value="&lt;font style=&quot;font-size: 14px;&quot;&gt;2nd Party&lt;/font&gt;" style="rounded=1;whiteSpace=wrap;html=1;" vertex="1" parent="1">
          <mxGeometry x="70" y="900" width="110" height="40" as="geometry" />
        </mxCell>
        <mxCell id="yliNx0_WTpfWxn0OHZDb-9" style="edgeStyle=orthogonalEdgeStyle;rounded=0;orthogonalLoop=1;jettySize=auto;html=1;entryX=0;entryY=0.5;entryDx=0;entryDy=0;" edge="1" parent="1" source="yliNx0_WTpfWxn0OHZDb-5" target="yliNx0_WTpfWxn0OHZDb-1">
          <mxGeometry relative="1" as="geometry" />
        </mxCell>
        <mxCell id="yliNx0_WTpfWxn0OHZDb-5" value="&lt;font style=&quot;font-size: 14px;&quot;&gt;3rd Party&lt;/font&gt;" style="rounded=1;whiteSpace=wrap;html=1;" vertex="1" parent="1">
          <mxGeometry x="70" y="970" width="110" height="40" as="geometry" />
        </mxCell>
        <mxCell id="yliNx0_WTpfWxn0OHZDb-18" value="support" style="edgeStyle=orthogonalEdgeStyle;rounded=0;orthogonalLoop=1;jettySize=auto;html=1;" edge="1" parent="1" source="yliNx0_WTpfWxn0OHZDb-6" target="yliNx0_WTpfWxn0OHZDb-5">
          <mxGeometry relative="1" as="geometry" />
        </mxCell>
        <mxCell id="yliNx0_WTpfWxn0OHZDb-6" value="&lt;font style=&quot;font-size: 14px;&quot;&gt;4th Party&lt;/font&gt;" style="rounded=1;whiteSpace=wrap;html=1;" vertex="1" parent="1">
          <mxGeometry x="70" y="1070" width="110" height="40" as="geometry" />
        </mxCell>
        <mxCell id="yliNx0_WTpfWxn0OHZDb-10" value="" style="group" vertex="1" connectable="0" parent="1">
          <mxGeometry x="290" y="940" width="290" height="100" as="geometry" />
        </mxCell>
        <mxCell id="yliNx0_WTpfWxn0OHZDb-1" value="&lt;font style=&quot;font-size: 18px;&quot;&gt;&amp;nbsp; Custodian&lt;/font&gt;" style="ellipse;whiteSpace=wrap;html=1;align=left;" vertex="1" parent="yliNx0_WTpfWxn0OHZDb-10">
          <mxGeometry width="289.57415565345076" height="100" as="geometry" />
        </mxCell>
        <mxCell id="yliNx0_WTpfWxn0OHZDb-7" value="&lt;font style=&quot;font-size: 14px;&quot;&gt;&amp;nbsp; &amp;nbsp;CSP&lt;/font&gt;" style="ellipse;whiteSpace=wrap;html=1;align=left;" vertex="1" parent="yliNx0_WTpfWxn0OHZDb-10">
          <mxGeometry x="110.71953010279" y="10" width="178.85462555066078" height="80" as="geometry" />
        </mxCell>
        <mxCell id="yliNx0_WTpfWxn0OHZDb-8" value="&lt;span style=&quot;font-size: 14px;&quot;&gt;&amp;nbsp; DBA&lt;/span&gt;" style="ellipse;whiteSpace=wrap;html=1;align=left;" vertex="1" parent="yliNx0_WTpfWxn0OHZDb-10">
          <mxGeometry x="177.5770925110132" y="20" width="112.42290748898677" height="60" as="geometry" />
        </mxCell>
        <mxCell id="yliNx0_WTpfWxn0OHZDb-11" value="" style="group" vertex="1" connectable="0" parent="1">
          <mxGeometry x="280" y="800" width="290" height="100" as="geometry" />
        </mxCell>
        <mxCell id="yliNx0_WTpfWxn0OHZDb-12" value="&lt;font style=&quot;font-size: 18px;&quot;&gt;&amp;nbsp;Controller&lt;/font&gt;" style="ellipse;whiteSpace=wrap;html=1;align=left;" vertex="1" parent="yliNx0_WTpfWxn0OHZDb-11">
          <mxGeometry width="289.57415565345076" height="100" as="geometry" />
        </mxCell>
        <mxCell id="yliNx0_WTpfWxn0OHZDb-13" value="&lt;span style=&quot;font-size: 14px;&quot;&gt;&amp;nbsp; CSC&lt;/span&gt;" style="ellipse;whiteSpace=wrap;html=1;align=left;" vertex="1" parent="yliNx0_WTpfWxn0OHZDb-11">
          <mxGeometry x="110.71953010279" y="10" width="178.85462555066078" height="80" as="geometry" />
        </mxCell>
        <mxCell id="yliNx0_WTpfWxn0OHZDb-16" value="Your customer" style="text;html=1;align=center;verticalAlign=middle;whiteSpace=wrap;rounded=0;" vertex="1" parent="1">
          <mxGeometry x="220" y="905" width="100" height="30" as="geometry" />
        </mxCell>
        <mxCell id="yliNx0_WTpfWxn0OHZDb-19" value="&lt;h3 class=&quot;part in-view&quot; data-startline=&quot;573&quot; data-endline=&quot;573&quot; id=&quot;Security-operations-management-system-SOMS&quot; data-id=&quot;Security-operations-management-system-SOMS&quot; data-original-title=&quot;&quot; title=&quot;&quot; aria-describedby=&quot;popover423674&quot; style=&quot;box-sizing: border-box; --tw-border-spacing-x: 0; --tw-border-spacing-y: 0; --tw-translate-x: 0; --tw-translate-y: 0; --tw-rotate: 0; --tw-skew-x: 0; --tw-skew-y: 0; --tw-scale-x: 1; --tw-scale-y: 1; --tw-pan-x: ; --tw-pan-y: ; --tw-pinch-zoom: ; --tw-scroll-snap-strictness: proximity; --tw-ordinal: ; --tw-slashed-zero: ; --tw-numeric-figure: ; --tw-numeric-spacing: ; --tw-numeric-fraction: ; --tw-ring-inset: ; --tw-ring-offset-width: 0px; --tw-ring-offset-color: #fff; --tw-ring-color: rgb(59 130 246 / .5); --tw-ring-offset-shadow: 0 0 #0000; --tw-ring-shadow: 0 0 #0000; --tw-shadow: 0 0 #0000; --tw-shadow-colored: 0 0 #0000; --tw-blur: ; --tw-brightness: ; --tw-contrast: ; --tw-grayscale: ; --tw-hue-rotate: ; --tw-invert: ; --tw-saturate: ; --tw-sepia: ; --tw-drop-shadow: ; --tw-backdrop-blur: ; --tw-backdrop-brightness: ; --tw-backdrop-contrast: ; --tw-backdrop-grayscale: ; --tw-backdrop-hue-rotate: ; --tw-backdrop-invert: ; --tw-backdrop-opacity: ; --tw-backdrop-saturate: ; --tw-backdrop-sepia: ; font-family: -apple-system, BlinkMacSystemFont, &amp;quot;Segoe UI&amp;quot;, &amp;quot;Helvetica Neue&amp;quot;, Helvetica, Roboto, Arial, &amp;quot;PingFang TC&amp;quot;, &amp;quot;Microsoft JhengHei&amp;quot;, 微軟正黑, sans-serif, &amp;quot;Apple Color Emoji&amp;quot;, &amp;quot;Segoe UI Emoji&amp;quot;, &amp;quot;Segoe UI Symbol&amp;quot;; font-weight: 600; line-height: 1.25; margin-top: 24px; margin-bottom: 16px; font-size: 1.25em; font-style: normal; font-variant-ligatures: normal; font-variant-caps: normal; letter-spacing: 0.35px; orphans: 2; text-align: start; text-indent: 0px; text-transform: none; widows: 2; word-spacing: 0px; -webkit-text-stroke-width: 0px; white-space: normal; background-color: rgb(255, 255, 255); text-decoration-thickness: initial; text-decoration-style: initial; text-decoration-color: initial;&quot;&gt;&lt;span data-position=&quot;20847&quot; data-size=&quot;44&quot; style=&quot;box-sizing: border-box; --tw-border-spacing-x: 0; --tw-border-spacing-y: 0; --tw-translate-x: 0; --tw-translate-y: 0; --tw-rotate: 0; --tw-skew-x: 0; --tw-skew-y: 0; --tw-scale-x: 1; --tw-scale-y: 1; --tw-pan-x: ; --tw-pan-y: ; --tw-pinch-zoom: ; --tw-scroll-snap-strictness: proximity; --tw-ordinal: ; --tw-slashed-zero: ; --tw-numeric-figure: ; --tw-numeric-spacing: ; --tw-numeric-fraction: ; --tw-ring-inset: ; --tw-ring-offset-width: 0px; --tw-ring-offset-color: #fff; --tw-ring-color: rgb(59 130 246 / .5); --tw-ring-offset-shadow: 0 0 #0000; --tw-ring-shadow: 0 0 #0000; --tw-shadow: 0 0 #0000; --tw-shadow-colored: 0 0 #0000; --tw-blur: ; --tw-brightness: ; --tw-contrast: ; --tw-grayscale: ; --tw-hue-rotate: ; --tw-invert: ; --tw-saturate: ; --tw-sepia: ; --tw-drop-shadow: ; --tw-backdrop-blur: ; --tw-backdrop-brightness: ; --tw-backdrop-contrast: ; --tw-backdrop-grayscale: ; --tw-backdrop-hue-rotate: ; --tw-backdrop-invert: ; --tw-backdrop-opacity: ; --tw-backdrop-saturate: ; --tw-backdrop-sepia: ;&quot;&gt;&lt;font color=&quot;#ff00ff&quot;&gt;Security operations management system (SOMS)&lt;/font&gt;&lt;/span&gt;&lt;/h3&gt;" style="text;whiteSpace=wrap;html=1;" vertex="1" parent="1">
          <mxGeometry x="130" y="530" width="380" height="80" as="geometry" />
        </mxCell>
      </root>
    </mxGraphModel>
  </diagram>
</mxfile>
